<svg width="293" height="228" viewBox="0 0 293 228" fill="none" xmlns="http://www.w3.org/2000/svg">
<path opacity="0.05" fill-rule="evenodd" clip-rule="evenodd" d="M0.575022 67.205C-2.02504 48.7046 10.8647 31.5993 29.3652 28.9992L230.353 0.752186C248.854 -1.84788 265.959 11.0419 268.559 29.5423L292.098 197.032C294.698 215.533 281.808 232.638 263.308 235.238L62.32 263.485C43.8196 266.085 26.7143 253.195 24.1142 234.695L0.575022 67.205ZM58.771 81.1085C64.3927 73.6483 74.9975 72.1579 82.4577 77.7795L139.766 120.965C147.227 126.586 148.717 137.191 143.095 144.651L99.9101 201.96C94.2885 209.42 83.6836 210.911 76.2235 205.289C68.7633 199.667 67.2729 189.063 72.8945 181.602L105.901 137.802L62.1 104.795C54.6398 99.1735 53.1494 88.5686 58.771 81.1085ZM167.793 163.263C158.543 164.563 152.098 173.115 153.398 182.366C154.698 191.616 163.251 198.061 172.501 196.761L222.748 189.699C231.998 188.399 238.443 179.846 237.143 170.596C235.843 161.346 227.291 154.901 218.04 156.201L167.793 163.263Z" fill="#111827"/>
</svg>
