<svg width="48" height="45" viewBox="0 0 48 45" fill="none" xmlns="http://www.w3.org/2000/svg">
<path fill-rule="evenodd" clip-rule="evenodd" d="M3 0C1.34315 0 0 1.34315 0 3C0 4.65685 1.34315 6 3 6V30C3 33.3137 5.68629 36 9 36H16.7574L12.8787 39.8787C11.7071 41.0503 11.7071 42.9497 12.8787 44.1213C14.0503 45.2929 15.9497 45.2929 17.1213 44.1213L24 37.2426L30.8787 44.1213C32.0503 45.2929 33.9497 45.2929 35.1213 44.1213C36.2929 42.9497 36.2929 41.0503 35.1213 39.8787L31.2426 36H39C42.3137 36 45 33.3137 45 30V6C46.6569 6 48 4.65685 48 3C48 1.34315 46.6569 0 45 0H3ZM38.1213 14.1213C39.2929 12.9497 39.2929 11.0503 38.1213 9.87868C36.9497 8.70711 35.0503 8.70711 33.8787 9.87868L24 19.7574L20.1213 15.8787C18.9497 14.7071 17.0503 14.7071 15.8787 15.8787L9.87868 21.8787C8.70711 23.0503 8.70711 24.9497 9.87868 26.1213C11.0503 27.2929 12.9497 27.2929 14.1213 26.1213L18 22.2426L21.8787 26.1213C23.0503 27.2929 24.9497 27.2929 26.1213 26.1213L38.1213 14.1213Z" fill="white"/>
</svg>
