<svg width="287" height="238" viewBox="0 0 287 238" fill="none" xmlns="http://www.w3.org/2000/svg">
<path opacity="0.07" fill-rule="evenodd" clip-rule="evenodd" d="M35.9877 140.232L70.4281 135.392C68.1601 107.797 69.8282 81.8486 75.0145 60.4194C51.5788 79.7613 36.827 108.678 35.9877 140.232ZM123.311 1.60459C45.1033 12.596 -9.38656 84.9066 1.60488 163.115C12.5963 241.323 84.9068 295.813 163.115 284.821C241.323 273.83 295.813 201.519 284.822 123.311C273.83 45.1031 201.52 -9.38684 123.311 1.60459ZM128.287 37.0067C126.941 37.1959 124.257 38.1457 120.702 42.7991C117.082 47.5382 113.451 55.0648 110.6 65.5607C105.976 82.5813 104.016 105.14 105.896 130.407L175.555 120.617C170.398 95.8106 162.296 74.6661 153.159 59.5793C147.525 50.276 141.961 44.0417 137.175 40.484C132.475 36.9908 129.633 36.8175 128.287 37.0067ZM211.023 115.632C205.597 88.4814 196.841 63.9981 185.949 44.8286C213.808 56.9614 235.959 80.692 245.463 110.792L211.023 115.632ZM180.53 156.019L110.872 165.809C116.028 190.615 124.131 211.76 133.267 226.846C138.901 236.15 144.465 242.384 149.252 245.942C153.952 249.435 156.793 249.608 158.14 249.419C159.486 249.23 162.17 248.28 165.724 243.627C169.345 238.888 172.975 231.361 175.827 220.865C180.451 203.845 182.411 181.286 180.53 156.019ZM211.412 226.006C216.598 204.577 218.266 178.629 215.998 151.034L250.439 146.194C249.599 177.748 234.848 206.665 211.412 226.006ZM100.477 241.597C89.5854 222.428 80.8295 197.944 75.4035 170.794L40.9631 175.634C50.4673 205.734 72.6182 229.464 100.477 241.597Z" fill="#111827"/>
</svg>
