<svg width="273" height="238" viewBox="0 0 273 238" fill="none" xmlns="http://www.w3.org/2000/svg">
<path opacity="0.07" fill-rule="evenodd" clip-rule="evenodd" d="M15.0003 33.879C5.78659 35.1739 -0.632889 43.6928 0.662016 52.9066C1.95692 62.1203 10.4759 68.5398 19.6896 67.2449L38.4466 200.708C41.0365 219.136 58.0743 231.975 76.5018 229.385L119.64 223.322L101.102 247.923C95.5029 255.354 96.9875 265.917 104.418 271.516C111.849 277.116 122.412 275.631 128.011 268.2L160.888 224.572L204.516 257.448C211.947 263.048 222.51 261.563 228.109 254.132C233.708 246.702 232.224 236.139 224.793 230.539L200.193 212.001L243.331 205.939C261.759 203.349 274.598 186.311 272.008 167.883L253.251 34.42C262.464 33.1251 268.884 24.6062 267.589 15.3924C266.294 6.1787 257.775 -0.240774 248.561 1.05413L15.0003 33.879ZM221.346 84.9585C226.945 77.5278 225.461 66.9647 218.03 61.3652C210.599 55.7658 200.036 57.2503 194.437 64.6811L147.222 127.337L122.621 108.799C115.191 103.199 104.628 104.684 99.0283 112.115L70.3517 150.17C64.7522 157.601 66.2367 168.164 73.6675 173.763C81.0982 179.363 91.6613 177.878 97.2607 170.447L115.799 145.847L140.399 164.385C147.83 169.984 158.393 168.499 163.992 161.069L221.346 84.9585Z" fill="#111827"/>
</svg>
