<svg width="241" height="269" viewBox="0 0 241 269" fill="none" xmlns="http://www.w3.org/2000/svg">
<path opacity="0.07" fill-rule="evenodd" clip-rule="evenodd" d="M152.417 346.724C152.417 346.724 248.805 169.612 239.573 103.929C230.342 38.2463 169.612 -7.51687 103.929 1.71426C38.2465 10.9454 -7.51669 71.6752 1.71445 137.358C10.9456 203.041 152.417 346.724 152.417 346.724ZM133.176 48.5461C131.652 46.3374 129.25 44.8888 126.581 44.5686C123.912 44.2484 121.233 45.0874 119.225 46.8723C116.314 49.4595 114.252 52.8423 112.735 56.0951C111.176 59.4369 109.923 63.2297 108.898 67.1722C106.848 75.0544 105.502 84.3504 104.667 93.5895C103.607 105.324 103.323 117.57 103.63 127.546C98.7109 125.153 95.6269 122.131 93.4681 118.9C89.5422 113.024 87.7825 105.213 86.3249 94.8414C85.7984 91.0954 83.0623 88.0361 79.3924 87.09C75.7224 86.1439 71.8414 87.4974 69.559 90.5193C58.6527 104.959 54.6415 122.459 56.9713 139.037C59.3012 155.614 67.9806 171.331 82.4446 182.205C111.377 203.957 152.516 198.176 174.332 169.291C185.238 154.851 189.25 137.351 186.92 120.774C184.59 104.196 175.911 88.4799 161.446 77.6054C155.187 72.8996 151.066 69.7543 147.027 65.7721C143.037 61.838 138.924 56.8725 133.176 48.5461Z" fill="black"/>
</svg>
