<svg width="43" height="46" viewBox="0 0 43 46" fill="none" xmlns="http://www.w3.org/2000/svg">
<path fill-rule="evenodd" clip-rule="evenodd" d="M0 6.13334C0 2.74599 2.75025 0 6.14286 0H36.8571C40.2497 0 43 2.74599 43 6.13334V30.6667C43 34.054 40.2497 36.8 36.8571 36.8H30.0411L30.4163 38.2988L32.8862 40.7649C33.7646 41.6419 34.0274 42.961 33.552 44.1069C33.0766 45.2528 31.9567 46 30.7144 46H12.2858C11.0435 46 9.92357 45.2528 9.44817 44.1069C8.97277 42.961 9.23555 41.6419 10.114 40.7649L12.5838 38.2988L12.9591 36.8H6.14286C2.75025 36.8 0 34.054 0 30.6667V6.13334ZM17.7261 27.6C17.6809 27.599 17.6358 27.599 17.5908 27.6H6.14286V6.13334H36.8571V27.6H25.4093C25.3644 27.599 25.3193 27.599 25.2741 27.6H17.7261Z" fill="white"/>
</svg>
