<svg width="255" height="212" viewBox="0 0 255 212" fill="none" xmlns="http://www.w3.org/2000/svg">
<g opacity="0.05">
<path d="M200.793 31.4579C209.118 29.5545 214.324 21.2623 212.421 12.9367C210.518 4.61111 202.225 -0.595076 193.9 1.30835L84.3428 26.3556C77.0695 18.5357 65.9398 14.7003 54.7802 17.2516C43.6206 19.803 35.2633 28.0936 32.1106 38.2971L13.0023 42.6657C4.67673 44.5692 -0.529461 52.8614 1.37396 61.187C3.27738 69.5126 11.5696 74.7187 19.8952 72.8153L39.0035 68.4467C46.2768 76.2666 57.4064 80.1021 68.566 77.5508C79.7256 74.9994 88.0829 66.7088 91.2357 56.5052L200.793 31.4579Z" fill="#111827"/>
<path d="M221.471 121.907C229.797 120.003 235.003 111.711 233.1 103.385C231.196 95.0598 222.904 89.8536 214.578 91.7571L195.47 96.1257C188.197 88.3058 177.067 84.4703 165.908 87.0216C154.748 89.573 146.391 97.8636 143.238 108.067L33.681 133.114C25.3554 135.018 20.1492 143.31 22.0527 151.636C23.9561 159.961 32.2483 165.167 40.5739 163.264L150.131 138.217C157.404 146.037 168.534 149.872 179.693 147.321C190.853 144.769 199.21 136.479 202.363 126.275L221.471 121.907Z" fill="#111827"/>
<path d="M253.778 193.834C255.682 202.16 250.476 210.452 242.15 212.355L132.593 237.403C129.44 247.606 121.083 255.897 109.923 258.448C98.7638 261 87.6342 257.164 80.3609 249.344L61.2526 253.713C52.927 255.616 44.6348 250.41 42.7314 242.084C40.8279 233.759 46.0341 225.467 54.3597 223.563L73.468 219.195C76.6207 208.991 84.978 200.7 96.1376 198.149C107.297 195.598 118.427 199.433 125.7 207.253L235.257 182.206C243.583 180.302 251.875 185.509 253.778 193.834Z" fill="#111827"/>
</g>
</svg>
