<svg width="53" height="38" viewBox="0 0 53 38" fill="none" xmlns="http://www.w3.org/2000/svg">
<path d="M26.5001 24.4286C29.5677 24.4286 32.0544 21.9981 32.0544 19C32.0544 16.0019 29.5677 13.5714 26.5001 13.5714C23.4326 13.5714 20.9459 16.0019 20.9459 19C20.9459 21.9981 23.4326 24.4286 26.5001 24.4286Z" fill="white"/>
<path fill-rule="evenodd" clip-rule="evenodd" d="M0 19.0001C3.53877 7.9879 14.065 0 26.5 0C38.935 0 49.4612 7.98781 53 18.9999C49.4612 30.0121 38.935 38 26.5 38C14.065 38 3.53884 30.0122 0 19.0001ZM37.6087 19C37.6087 24.9962 32.6352 29.8571 26.5001 29.8571C20.3651 29.8571 15.3916 24.9962 15.3916 19C15.3916 13.0038 20.3651 8.14286 26.5001 8.14286C32.6352 8.14286 37.6087 13.0038 37.6087 19Z" fill="white"/>
</svg>
