<svg width="239" height="228" viewBox="0 0 239 228" fill="none" xmlns="http://www.w3.org/2000/svg">
<g opacity="0.05">
<path d="M80.6072 5.23741C70.9304 6.5974 64.1883 15.5445 65.5482 25.2213C66.9082 34.8982 75.8553 41.6403 85.5322 40.2803L120.575 35.3553C130.252 33.9954 136.994 25.0482 135.634 15.3714C134.274 5.6946 125.327 -1.04753 115.65 0.312457L80.6072 5.23741Z" fill="#111827"/>
<path fill-rule="evenodd" clip-rule="evenodd" d="M0.387435 70.1141C-2.33254 50.7605 11.1517 32.8663 30.5054 30.1463C34.5853 59.1768 61.4266 79.4032 90.4571 75.3232L125.5 70.3982C154.53 66.3183 174.757 39.4769 170.677 10.4465C190.031 7.72649 207.925 21.2107 210.645 40.5644L237.732 233.3C240.452 252.654 226.968 270.548 207.614 273.268L67.4425 292.968C48.0889 295.688 30.1947 282.204 27.4747 262.85L0.387435 70.1141ZM184.524 146.207C190.404 138.403 188.845 127.309 181.041 121.428C173.237 115.547 162.143 117.107 156.262 124.911L106.674 190.716L80.8374 171.246C73.0332 165.365 61.9392 166.924 56.0583 174.729C50.1775 182.533 51.7366 193.627 59.5408 199.508L99.5087 229.625C107.313 235.506 118.407 233.947 124.288 226.143L184.524 146.207Z" fill="#111827"/>
</g>
</svg>
