<svg width="254" height="61" viewBox="0 0 254 61" fill="none" xmlns="http://www.w3.org/2000/svg">
<path d="M54.4676 40.8168L49.8239 30.8067L56.9257 20.118L54.2865 0L37.0877 14.946C34.3449 14.4211 31.5568 14.1708 28.7647 14.1989H28.1811C25.3859 14.1724 22.595 14.4226 19.8488 14.946L2.64537 0L0 20.118L7.10333 30.8067L2.45962 40.8168L4.08027 41.0498H4.09265L3.49362 43.2428L4.54929 43.628C15.7019 47.6817 27.1332 60.4626 27.2431 60.5915L27.6053 61H29.308L29.6702 60.5915C29.7847 60.4626 41.216 47.6755 52.3686 43.628L53.4243 43.2428L52.8299 41.0498H52.8392L54.4676 40.8168ZM41.3367 44.1996L47.0996 42.8017C40.8569 46.0136 35.0662 51.0521 31.1562 54.8899H25.7741C21.861 51.049 16.075 46.0059 9.83073 42.7955L15.5936 44.1934L10.7161 40.6506C9.44056 39.7851 8.02717 39.1443 6.53679 38.7558L14.4311 21.7441L8.11101 27.2562L3.15772 19.7871L4.12361 12.3755L7.63116 15.283L10.0397 10.4853L8.37415 8.32334L19.3844 17.8954L19.971 17.7634C22.6652 17.2043 25.4116 16.9387 28.1625 16.9713H28.7817C31.5261 16.9493 34.2653 17.2153 36.9546 17.7649L37.5397 17.8954L48.5546 8.32334L46.8922 10.4853L49.3007 15.2861L52.8082 12.3755L53.7819 19.784L48.8209 27.2531L42.5039 21.7441L50.3873 38.7527C48.897 39.1412 47.4836 39.782 46.208 40.6475L41.3367 44.1996Z" fill="#060606"/>
<path d="M35.4253 37.6919C35.3482 38.8632 35.2004 40.0286 34.9826 41.1819L34.7798 42.2458L38.6016 40.705L38.6929 40.4643C39.0025 39.6629 40.7438 36.7026 41.7299 35.0733L42.9125 33.1396L35.4469 37.3689L35.4253 37.6919Z" fill="#060606"/>
<path d="M21.5066 37.6923L21.4911 37.3677L14.0271 33.1416L15.2051 35.0846C16.188 36.7061 17.9309 39.6664 18.2389 40.4678L18.3303 40.7086L22.152 42.2462L21.9446 41.1792C21.7292 40.0267 21.5829 38.8624 21.5066 37.6923Z" fill="#060606"/>
<path d="M70.9033 45.8779V26.5303H86.3266V31.2379H76.242V34.5166H85.3592V38.9695H76.242V45.8779H70.9033Z" fill="#060606"/>
<path d="M88.0882 36.2094C88.0822 34.8666 88.3537 33.5371 88.8854 32.3048C89.3924 31.1042 90.1286 30.0146 91.0525 29.0976C92.0044 28.172 93.1283 27.4433 94.3603 26.9527C97.0055 25.8909 99.9558 25.8881 102.603 26.9449C103.826 27.4334 104.941 28.1579 105.886 29.0774C106.806 29.9908 107.534 31.079 108.03 32.2784C108.555 33.5217 108.823 34.8591 108.818 36.2094C108.822 37.5543 108.55 38.8856 108.019 40.1203C107.514 41.3222 106.777 42.4125 105.852 43.3291C104.903 44.2534 103.782 44.982 102.553 45.474C101.246 46.007 99.847 46.2767 98.436 46.2676C96.5835 46.2922 94.7569 45.8301 93.1375 44.9273C91.594 44.0729 90.3102 42.8148 89.4225 41.2867C88.53 39.7458 88.069 37.9916 88.0882 36.2094ZM93.5601 36.2094C93.5321 37.5734 94.0314 38.8953 94.9532 39.8982C95.3955 40.3977 95.9412 40.7944 96.5521 41.0605C97.163 41.3266 97.8244 41.4557 98.4901 41.4389C99.9349 41.4389 101.113 40.932 102.026 39.9184C102.938 38.9047 103.396 37.6684 103.4 36.2094C103.428 34.846 102.928 33.5247 102.007 32.5223C101.078 31.4951 99.8915 30.9815 98.4468 30.9815C97.0207 30.9815 95.851 31.4884 94.9377 32.5021C94.0244 33.5158 93.5663 34.7515 93.5632 36.2094H93.5601Z" fill="#060606"/>
<path d="M110.22 45.8779L116.823 36.0418L110.489 26.5303H116.634L120.051 31.9803L123.492 26.5303H129.49L123.156 35.9827L129.772 45.8732H123.626L119.928 40.0442L116.213 45.8732L110.22 45.8779Z" fill="#060606"/>
<path d="M139.057 45.8735V26.5275H146.487C148.045 26.5076 149.596 26.748 151.075 27.2389C152.344 27.6517 153.512 28.3286 154.502 29.2253C155.416 30.077 156.135 31.1171 156.611 32.2742C157.115 33.5093 157.366 34.8334 157.351 36.1679C157.363 37.4927 157.109 38.8064 156.604 40.0306C156.123 41.1961 155.399 42.245 154.481 43.1074C153.48 44.0205 152.299 44.7131 151.015 45.1405C149.52 45.6472 147.949 45.8951 146.371 45.8735H139.057ZM144.395 41.166H146.574C148.195 41.166 149.485 40.73 150.444 39.8582C151.402 38.9864 151.882 37.763 151.883 36.1881C151.883 34.6536 151.402 33.4437 150.439 32.5584C149.476 31.6731 148.186 31.2305 146.569 31.2305H144.395V41.166Z" fill="#060606"/>
<path d="M160.22 45.8734V26.5273H165.558V45.8734H160.22Z" fill="#060606"/>
<path d="M168.449 36.1787C168.441 34.8263 168.709 33.4865 169.235 32.2415C169.735 31.0442 170.469 29.9594 171.393 29.0513C172.344 28.1344 173.465 27.4141 174.693 26.9312C176.008 26.4068 177.412 26.143 178.828 26.1547C180.454 26.1547 181.893 26.3959 183.145 26.8784C184.422 27.3761 185.602 28.0964 186.629 29.0063L183.501 32.7711C182.853 32.21 182.122 31.7545 181.334 31.4214C180.544 31.1146 179.703 30.9638 178.857 30.9772C178.197 30.9654 177.543 31.0956 176.937 31.3593C176.332 31.6229 175.79 32.0138 175.348 32.5055C174.398 33.5254 173.922 34.7752 173.922 36.2548C173.922 37.8349 174.413 39.1375 175.394 40.1625C176.376 41.1876 177.629 41.7007 179.153 41.7017C180.397 41.7017 181.429 41.4232 182.249 40.8661V38.4401H178.411V34.5681H187.285V43.3061C184.94 45.2543 181.982 46.303 178.938 46.2649C177.071 46.2927 175.227 45.8534 173.573 44.9866C172.009 44.1669 170.707 42.9232 169.814 41.3973C168.893 39.8154 168.421 38.0107 168.449 36.1787Z" fill="#060606"/>
<path d="M190.378 45.8734V26.5273H195.715V45.8734H190.378Z" fill="#060606"/>
<path d="M198.189 31.2365V26.5273H215.103V31.2365H209.309V45.8734H203.97V31.2365H198.189Z" fill="#060606"/>
<path d="M215.883 45.8737L224.099 26.3926H229.245L237.448 45.8737H231.721L230.31 42.4195H222.88L221.505 45.8737H215.883ZM224.446 38.2524H228.78L226.629 32.7481L224.446 38.2524Z" fill="#060606"/>
<path d="M239.318 45.8734V26.5273H244.656V41.1658H254V45.8734H239.318Z" fill="#060606"/>
</svg>
